<svg xmlns="http://www.w3.org/2000/svg" viewBox="0 0 24 24" fill="#0085FF"><path d="M12 10.8c-1.787-3.607-5.33-7.432-8.591-9.423C2.15.564.444.184.116.643c-.42.585-.02 2.656.326 4.254.766 3.537 3.511 7.24 6.138 8.243-2.627 1.002-5.372 4.706-6.138 8.242-.346 1.599-.746 3.67-.326 4.255.328.459 2.034.079 3.293-.734 3.261-1.991 6.804-5.816 8.591-9.423 1.787 3.607 5.33 7.432 8.591 9.423 1.259.813 2.965 1.193 3.293.734.42-.585.02-2.656-.326-4.255-.766-3.536-3.511-7.24-6.138-8.242 2.627-1.003 5.372-4.706 6.138-8.243.346-1.598.746-3.669.326-4.254-.328-.459-2.034-.079-3.293.734-3.261 1.991-6.804 5.816-8.591 9.423Z"/></svg>
