<svg xmlns="http://www.w3.org/2000/svg" viewBox="0 0 24 24" fill="#FA5C5C"><path d="M4.685 3.645c-.244.024-.467.16-.58.375L2.143 7.89c-.067.126-.073.275-.015.405A5.62 5.62 0 0 0 6.64 11.53c1.782 0 3.328-.828 4.332-2.115l1.025 1.26a1.263 1.263 0 0 0 1.994 0l1.023-1.257c1.005 1.284 2.551 2.112 4.333 2.112a5.617 5.617 0 0 0 4.512-3.235c.058-.13.053-.28-.014-.406L21.88 4.02a.66.66 0 0 0-.58-.375H4.685zm.482 1.34h13.662l1.523 2.946H3.641l1.526-2.946zm6.83 5.03c.536 0 1.033.155 1.458.42l-.527.652c-.25-.138-.535-.22-.843-.22-.497 0-.946.216-1.26.56l-.58-.711a2.81 2.81 0 0 1 1.752-.701zm-4.323.415c.677 0 1.286.326 1.68.83l-.583.715a1.47 1.47 0 0 0-1.097-.493c-.63 0-1.168.397-1.383.953l-.84-.33c.348-.9 1.206-1.543 2.223-1.543zm8.64.004c1.02 0 1.877.644 2.224 1.548l-.84.328c-.217-.56-.754-.959-1.384-.959c-.443 0-.839.197-1.104.504l-.583-.717c.396-.506 1.007-.833 1.688-.833zm-4.314.153c.31 0 .594.082.843.22l-.526.65a1.474 1.474 0 0 0-1.459-.42 2.82 2.82 0 0 1 1.142-.45zM2 12.593v4.204c0 .543.14.996.416 1.354c.277.358.68.618 1.196.764c.542.153 1.254.27 2.118.347c1.727.153 4.102.23 6.27.23s4.542-.077 6.268-.23c.864-.077 1.576-.194 2.118-.347c.517-.146.92-.406 1.197-.764c.276-.358.416-.811.416-1.354v-4.204a6.83 6.83 0 0 1-3.629 1.413c.023.167.034.338.034.512c0 .942-.42 1.764-1.082 2.32c-.663.555-1.572.883-2.58.883c-1.009 0-1.918-.328-2.58-.883c-.56-.47-1.037-1.137-1.11-1.93a3.527 3.527 0 0 1-2.264 0c-.074.793-.55 1.46-1.11 1.93c-.662.555-1.571.883-2.58.883c-1.008 0-1.917-.328-2.58-.883c-.661-.556-1.08-1.378-1.08-2.32c0-.174.01-.345.033-.512A6.838 6.838 0 0 1 2 12.593zm7.653 2.116c.376 0 .717.15 1.01.402c.264.228.337.42.337.525c0 .105-.073.297-.337.525c-.293.252-.634.402-1.01.402s-.717-.15-1.01-.402c-.264-.228-.337-.42-.337-.525c0-.105.073-.297.337-.525c.293-.252.634-.402 1.01-.402zm4.694 0c.376 0 .717.15 1.01.402c.264.228.337.42.337.525c0 .105-.073.297-.337.525c-.293.252-.634.402-1.01.402s-.717-.15-1.01-.402c-.264-.228-.337-.42-.337-.525c0-.105.073-.297.337-.525c.293-.252.634-.402 1.01-.402z"/></svg>
