<svg xmlns="http://www.w3.org/2000/svg" viewBox="0 0 24 24" fill="#FF5E5B"><path d="M23.881 8.948c-.773-4.085-4.859-4.593-4.859-4.593H.724c-.604 0-.721.547-.721.547v13.71s-.115.656.721.656h13.431s.537.066.537-.633V14.12s.06-.604.538-.604h3.195s4.23.362 5.456-4.568zM17.41 12.12h-2.14V5.672h2.14v6.448zm3.295-1.042c-.524 1.962-1.921 1.767-1.921 1.767h-.793V6.29h.793s2.176-.328 1.921 1.768a3.1 3.1 0 0 1 0 3.02zM10.14 7.214s-.217-.674-.972-.674c-.754 0-.965.674-.965.674s-.223-.674-.965-.674c-.742 0-.972.674-.972.674C5.55 8.1 5.922 10.42 8.203 11.83c2.275-1.41 2.652-3.73 1.937-4.616z"/></svg>
